<?xml version="1.0" encoding="UTF-8" standalone="no"?>
<!DOCTYPE svg PUBLIC "-//W3C//DTD SVG 1.1//EN" "http://www.w3.org/Graphics/SVG/1.1/DTD/svg11.dtd">
<svg width="100%" height="100%" viewBox="0 0 1392 515" version="1.1" xmlns="http://www.w3.org/2000/svg" xmlns:xlink="http://www.w3.org/1999/xlink" xml:space="preserve" xmlns:serif="http://www.serif.com/" style="fill-rule:evenodd;clip-rule:evenodd;stroke-linejoin:round;stroke-miterlimit:2;">
    <g transform="matrix(1,0,0,1,-1936.15,-672.818)">
        <g id="logo_vertical_b" transform="matrix(1,0,0,1,918.495,-1553.95)">
            <g id="logo_text" transform="matrix(1,0,0,1,-210.391,2289.31)">
                <path d="M1325.45,367.854L1371.65,367.854C1372.65,367.854 1373.45,367.454 1373.45,366.854C1373.45,366.454 1373.05,366.054 1372.45,365.454C1365.45,358.654 1363.05,356.654 1355.05,350.054C1350.05,355.654 1348.45,357.454 1343.25,363.654L1326.65,363.654C1336.65,356.054 1338.85,354.054 1350.65,342.454C1357.45,342.254 1360.25,341.454 1360.25,339.454C1360.25,337.254 1356.65,335.654 1332.25,327.854C1330.05,338.854 1326.05,350.254 1319.65,363.654L1299.25,363.654C1305.65,360.654 1309.05,356.054 1309.05,350.254C1309.05,342.054 1300.65,335.854 1279.85,328.654L1278.45,329.854C1284.65,339.254 1286.45,343.654 1289.05,356.054C1290.25,361.454 1290.65,362.254 1293.05,363.654L1276.85,363.654C1272.05,363.654 1268.85,363.254 1264.25,362.054L1265.45,369.054C1270.25,368.054 1273.05,367.854 1276.85,367.854L1305.25,367.854L1305.25,393.454L1281.25,393.454C1276.25,393.454 1272.45,393.054 1267.65,391.854L1268.65,398.854C1273.05,398.054 1276.25,397.654 1281.05,397.654L1305.25,397.654L1305.25,404.654C1305.25,411.454 1304.85,428.254 1304.45,441.054C1304.45,444.654 1305.25,445.254 1312.05,445.254C1324.45,445.254 1326.25,444.654 1326.25,439.854C1325.85,431.854 1325.45,410.454 1325.45,404.654L1325.45,397.654L1367.45,397.654C1368.85,397.654 1369.65,397.254 1369.65,396.454C1369.65,395.854 1369.25,395.254 1368.45,394.454C1361.05,387.454 1358.85,385.454 1351.05,379.054C1347.45,383.454 1343.45,388.254 1339.25,393.454L1325.45,393.454L1325.45,367.854ZM1326.65,292.054L1326.65,278.454C1332.85,276.454 1335.25,275.054 1335.25,273.054C1335.25,272.054 1334.25,271.254 1332.65,270.654C1330.25,269.654 1328.65,269.654 1303.25,267.454C1304.25,276.454 1304.45,279.454 1304.45,290.454L1304.45,292.054L1244.05,292.054C1238.05,292.054 1233.25,291.454 1228.05,290.254L1229.05,297.654C1233.85,296.454 1237.25,296.254 1244.05,296.254L1304.45,296.254L1304.45,320.854L1262.25,320.854C1252.05,315.254 1248.65,313.654 1237.85,308.854C1238.85,324.454 1239.25,332.054 1239.25,356.254C1239.25,391.454 1238.65,425.254 1237.85,447.254C1237.85,450.854 1238.85,451.454 1246.05,451.454C1258.45,451.454 1260.65,450.654 1260.65,445.654L1260.65,325.054L1374.05,325.054L1374.05,423.654C1374.05,426.254 1373.25,426.854 1370.85,426.854L1370.05,426.854C1358.45,426.454 1357.25,426.454 1337.25,425.054L1337.05,427.654C1354.85,432.654 1358.65,434.454 1362.05,438.654C1363.45,440.654 1364.45,444.054 1364.65,447.454C1364.85,450.454 1365.45,451.054 1367.45,451.054C1370.85,451.054 1377.85,450.054 1381.45,448.854C1392.65,445.454 1396.05,440.854 1396.25,429.854C1395.65,404.854 1395.65,404.854 1395.65,396.854L1395.65,330.654C1401.45,327.254 1403.25,325.854 1403.25,324.054C1403.25,323.054 1402.45,322.054 1400.85,320.854C1393.85,315.654 1391.45,313.854 1383.65,308.654C1378.65,313.854 1377.05,315.454 1371.85,320.854L1326.65,320.854L1326.65,296.254L1408.45,296.254C1409.85,296.254 1410.85,295.654 1410.85,294.854C1410.85,294.454 1410.45,293.854 1409.65,293.054C1399.85,284.454 1396.85,282.054 1386.25,274.254C1379.85,281.654 1377.85,284.054 1370.85,292.054L1326.65,292.054Z" style="fill:rgb(51,51,51);fill-rule:nonzero;"/>
                <path d="M1549.05,286.254L1614.65,286.254C1616.05,286.254 1616.85,285.854 1616.85,285.054C1616.85,284.654 1616.65,284.054 1615.85,283.254C1606.25,275.454 1603.25,273.254 1592.85,266.054C1586.05,272.654 1583.85,274.854 1577.05,282.054L1447.05,282.054C1441.65,282.054 1436.85,281.454 1431.85,280.254L1433.05,287.454C1437.65,286.654 1441.25,286.254 1447.05,286.254L1490.45,286.254C1490.25,298.254 1490.25,307.254 1490.25,312.854C1490.05,315.054 1490.05,318.854 1490.05,323.454L1467.65,323.454C1457.25,317.454 1453.85,315.654 1443.05,310.854C1443.85,326.454 1444.25,343.254 1444.25,377.854C1444.25,390.854 1443.85,412.654 1443.25,443.654C1443.45,447.254 1444.45,447.854 1450.45,447.854C1454.65,447.854 1461.05,447.454 1462.45,446.854C1464.65,446.254 1465.45,445.254 1465.45,442.654L1465.45,431.854L1579.25,431.854L1579.25,443.054C1579.25,446.854 1580.05,447.254 1587.05,447.254C1594.05,447.254 1598.85,446.454 1600.45,445.254C1601.25,444.654 1601.65,443.854 1601.65,442.054C1600.85,398.454 1600.45,370.254 1600.45,357.254L1600.45,332.654C1605.45,329.654 1607.05,328.254 1607.05,326.654C1607.05,325.854 1606.45,324.854 1604.65,323.454C1597.85,318.254 1595.85,316.654 1588.65,311.654C1583.85,316.454 1582.45,318.054 1577.45,323.454L1549.05,323.454L1549.05,286.254ZM1528.85,286.254L1528.85,323.454L1510.45,323.454C1510.65,316.054 1510.85,303.654 1510.85,286.254L1528.85,286.254ZM1489.85,327.654C1489.05,349.054 1488.85,352.854 1487.25,363.454C1484.25,381.854 1478.65,393.854 1465.85,408.654L1466.85,410.254C1493.85,394.054 1504.45,379.054 1508.45,352.054C1509.45,345.854 1509.65,343.454 1510.25,327.654L1528.85,327.654L1528.85,383.054C1528.85,388.654 1529.85,391.254 1532.85,393.254C1535.65,395.054 1539.85,395.654 1552.85,395.654C1562.85,395.654 1568.05,395.054 1571.85,393.654C1575.65,392.054 1577.85,388.454 1577.85,383.854C1577.85,379.654 1576.05,377.454 1572.25,375.854C1570.45,375.254 1569.85,374.454 1569.85,372.654L1569.85,371.854L1570.05,345.654L1567.85,345.454C1563.25,364.654 1561.25,372.454 1559.85,374.854C1558.85,376.654 1557.25,377.254 1552.25,377.254C1549.65,377.254 1549.05,376.654 1549.05,374.254L1549.05,327.654L1579.25,327.654L1579.25,427.654L1465.45,427.654L1465.45,327.654L1489.85,327.654Z" style="fill:rgb(51,51,51);fill-rule:nonzero;"/>
                <path d="M1821.05,297.054C1822.45,297.054 1823.25,296.654 1823.25,295.854C1823.25,295.254 1822.85,294.654 1821.85,293.654C1812.05,286.054 1809.05,283.854 1799.25,276.454C1793.05,283.454 1791.25,285.454 1784.85,292.854L1756.85,292.854L1756.85,277.254C1763.65,275.454 1765.45,274.454 1765.45,272.654C1765.45,270.454 1761.65,269.454 1749.05,268.254C1745.65,268.054 1740.45,267.654 1733.45,266.854C1734.25,273.854 1734.45,276.654 1734.45,282.854L1734.45,292.854L1703.85,292.854C1699.25,292.854 1694.85,292.254 1690.05,291.254L1691.65,298.454C1695.85,297.454 1698.65,297.054 1703.85,297.054L1725.05,297.054C1722.65,311.654 1721.25,317.854 1717.65,329.454C1712.85,329.654 1708.45,329.654 1706.85,329.654C1700.45,329.654 1697.25,329.454 1689.25,328.854C1694.05,355.054 1694.05,355.254 1696.05,355.254C1697.65,355.254 1698.85,353.254 1699.65,349.454C1753.85,339.254 1753.85,339.254 1785.25,332.054C1788.05,336.854 1789.85,340.454 1793.05,347.054C1794.45,350.454 1795.85,351.654 1797.85,351.654C1803.65,351.654 1809.85,343.054 1809.85,335.054C1809.85,323.854 1800.45,317.454 1763.85,303.254L1762.45,305.254C1771.05,313.054 1774.25,316.454 1781.25,326.054C1760.45,327.654 1745.25,328.454 1727.05,329.054C1739.85,315.054 1742.25,312.054 1752.85,297.054L1821.05,297.054ZM1644.05,271.654C1656.45,282.654 1661.05,289.054 1667.65,304.854C1669.25,308.654 1670.85,310.254 1673.25,310.254C1679.45,310.254 1685.85,301.854 1685.85,293.654C1685.85,287.654 1682.25,283.254 1673.85,279.254C1666.85,275.854 1657.85,272.854 1645.45,269.654L1644.05,271.654ZM1633.05,317.654C1643.45,327.254 1647.85,333.654 1653.45,348.454C1655.25,352.654 1656.85,354.454 1659.25,354.454C1665.25,354.454 1672.05,345.654 1672.05,338.054C1672.05,332.054 1668.65,327.854 1660.85,323.854C1655.25,321.054 1649.25,319.254 1634.45,315.654L1633.05,317.654ZM1756.05,361.654C1761.45,360.254 1763.05,359.254 1763.05,357.654C1763.05,355.254 1761.85,355.054 1735.65,352.254C1736.05,361.054 1736.25,365.054 1736.25,373.054C1736.25,404.054 1736.05,421.254 1735.65,441.654C1735.65,445.054 1736.65,445.454 1742.85,445.454C1750.25,445.454 1754.65,444.654 1755.85,443.254C1756.25,442.654 1756.45,441.854 1756.45,440.254C1756.05,420.054 1756.05,410.454 1756.05,391.654L1756.05,361.654ZM1635.05,390.454C1643.25,393.854 1645.45,395.054 1647.45,397.054C1650.25,399.654 1651.45,403.654 1651.45,409.854C1651.45,416.054 1650.65,424.054 1648.85,435.054C1648.45,438.654 1647.85,442.654 1647.85,443.654C1647.85,447.454 1650.25,449.654 1654.45,449.654C1660.45,449.654 1666.45,446.654 1670.05,441.454C1672.45,438.054 1673.85,433.054 1673.85,427.654C1673.85,422.854 1672.85,418.254 1670.05,410.454C1668.25,405.254 1667.85,403.854 1667.85,401.454C1667.85,398.854 1668.25,397.454 1670.25,390.254L1695.25,306.854L1692.25,305.854C1681.25,334.254 1669.85,360.254 1660.05,378.454C1654.45,389.054 1653.25,390.454 1650.25,390.454C1648.05,390.454 1644.45,389.854 1635.65,387.654L1635.05,390.454ZM1771.05,410.254C1771.05,416.454 1771.05,416.454 1770.85,432.254L1770.85,432.854C1770.85,444.454 1773.45,445.854 1793.65,445.854C1806.45,445.854 1814.85,445.054 1819.45,443.454C1823.65,441.854 1826.25,438.054 1826.25,433.454C1826.25,429.854 1824.85,427.654 1820.85,425.654C1818.45,424.454 1817.85,423.254 1817.85,420.254L1817.85,419.054L1820.05,384.654L1817.45,384.254C1810.25,411.854 1807.25,421.854 1805.45,424.854C1804.25,426.854 1802.45,427.454 1796.45,427.454C1791.05,427.454 1790.65,427.254 1790.65,423.854L1790.65,361.454C1796.45,359.654 1798.05,358.654 1798.05,357.054C1798.05,354.654 1797.65,354.454 1770.45,351.454C1770.85,359.454 1771.05,362.854 1771.05,370.454L1771.05,410.254ZM1672.45,452.054C1694.65,442.054 1706.05,433.054 1713.85,420.054C1721.45,407.254 1723.65,394.454 1724.25,361.854C1729.05,360.254 1730.65,359.254 1730.65,357.654C1730.65,355.254 1727.25,354.654 1702.25,352.654C1702.65,360.654 1702.85,364.854 1702.85,370.654C1702.85,393.454 1700.45,409.454 1695.05,421.054C1689.85,432.254 1683.85,439.654 1671.25,450.054L1672.45,452.054Z" style="fill:rgb(51,51,51);fill-rule:nonzero;"/>
                <path d="M1968.65,371.854L1994.25,371.854L1994.25,391.854C1994.25,394.054 1993.65,394.654 1991.25,394.654C1985.45,394.454 1985.45,394.454 1973.05,393.654L1972.85,395.654C1980.05,398.254 1980.45,398.454 1982.65,400.054C1986.25,402.254 1987.65,405.254 1988.25,412.254C1988.45,415.454 1988.45,415.654 1990.45,415.654C1990.65,415.654 1990.65,415.654 1993.25,415.454C2001.05,414.854 2005.85,413.654 2009.65,410.854C2013.25,408.054 2014.65,405.254 2015.05,399.254L2015.05,392.254C2014.85,388.054 2014.85,385.254 2014.85,384.254L2014.85,322.654C2021.45,318.454 2021.45,318.454 2021.45,316.654C2021.45,315.854 2021.05,315.254 2020.25,314.054C2013.25,308.854 2011.25,307.454 2004.25,302.454C1998.05,308.454 1998.05,308.454 1992.85,313.654L1971.05,313.654C1972.85,311.454 1973.65,309.854 1973.65,307.454C1973.65,306.254 1973.45,305.254 1972.85,303.254C1981.05,299.654 1990.85,294.854 2005.65,287.054C2008.45,286.654 2010.45,286.254 2012.05,286.254C2014.25,286.054 2016.25,285.454 2017.45,284.854C2018.05,284.654 2018.45,283.854 2018.45,283.254C2018.45,282.254 2017.85,281.454 2016.45,280.054C2007.05,272.854 2004.25,270.654 1995.05,263.854C1989.65,268.854 1988.05,270.254 1983.25,275.054L1917.85,275.054C1911.65,275.054 1904.45,274.254 1898.65,273.054L1900.45,280.654C1905.45,279.854 1912.65,279.254 1917.45,279.254L1982.85,279.254C1979.05,285.254 1978.05,286.454 1968.65,297.854C1962.05,292.854 1948.85,289.054 1928.05,285.854L1926.85,287.654C1934.85,292.054 1939.45,295.054 1944.45,299.654C1948.65,303.454 1949.65,304.654 1956.45,313.654L1926.25,313.654C1916.65,308.654 1913.65,307.054 1903.65,302.454C1904.25,315.854 1904.65,334.454 1904.65,349.254C1904.65,375.454 1904.25,403.854 1903.85,413.054C1904.25,415.854 1905.45,416.454 1910.45,416.454C1916.05,416.454 1921.25,415.854 1923.25,414.854C1924.45,414.254 1925.05,413.254 1925.05,410.854C1924.85,399.254 1924.85,397.654 1924.85,393.854L1924.85,371.854L1949.05,371.854L1949.05,382.854C1949.05,386.654 1948.45,404.854 1948.25,411.454C1948.45,414.454 1949.85,415.454 1953.65,415.454C1956.85,415.454 1964.05,414.854 1965.65,414.454C1967.85,414.054 1968.65,413.054 1969.05,410.254C1968.65,387.054 1968.65,387.054 1968.65,383.054L1968.65,371.854ZM1949.05,317.854L1949.05,340.654L1924.85,340.654L1924.85,317.854L1949.05,317.854ZM1968.65,317.854L1994.25,317.854L1994.25,340.654L1968.65,340.654L1968.65,317.854ZM1968.65,367.654L1968.65,344.854L1994.25,344.854L1994.25,367.654L1968.65,367.654ZM1949.05,367.654L1924.85,367.654L1924.85,344.854L1949.05,344.854L1949.05,367.654ZM1846.85,271.654C1855.85,281.854 1861.85,293.454 1867.85,312.654C1870.05,319.854 1870.65,320.654 1873.85,320.654C1881.25,320.654 1889.05,311.454 1889.05,302.454C1889.05,292.254 1876.05,281.654 1848.45,270.054L1846.85,271.654ZM1842.05,355.454C1844.05,354.854 1844.05,354.854 1846.25,354.654C1848.05,354.654 1850.85,354.454 1854.05,354.254L1866.25,354.254L1866.25,408.454C1858.45,413.654 1856.85,414.454 1839.05,421.654C1851.45,446.654 1853.05,449.654 1855.05,449.654C1856.45,449.654 1857.65,447.854 1857.65,445.854C1857.45,443.454 1857.45,441.854 1857.25,440.654C1872.65,422.054 1872.65,422.054 1883.65,407.054C1887.45,418.854 1891.25,425.054 1899.05,431.854C1908.05,439.854 1916.85,443.254 1931.85,444.854C1941.05,445.654 1946.65,445.854 1973.85,445.854C1990.05,445.854 2011.05,445.454 2015.25,445.054C2017.25,444.854 2017.85,444.254 2018.25,442.254C2019.85,431.654 2022.85,427.454 2031.25,423.454L2031.25,421.654C1988.65,424.854 1964.65,426.054 1938.85,426.054C1922.05,426.054 1913.05,424.854 1903.25,420.854C1895.05,417.854 1891.05,413.854 1887.85,406.254L1887.85,358.654C1892.45,356.254 1894.45,354.454 1894.45,352.854C1894.45,352.254 1894.05,351.654 1892.85,350.454C1885.85,344.454 1883.45,342.654 1875.45,337.254C1870.65,342.854 1869.25,344.654 1864.65,350.054L1854.05,350.054C1850.45,350.054 1844.45,349.254 1840.45,348.054L1842.05,355.454Z" style="fill:rgb(51,51,51);fill-rule:nonzero;"/>
                <path d="M2094.65,284.454C2104.25,301.654 2112.45,307.454 2128.05,307.454C2136.05,307.454 2155.45,305.254 2175.45,302.254C2187.65,300.254 2190.85,298.654 2190.85,294.054C2190.85,291.254 2189.45,289.054 2185.85,286.454C2181.45,283.054 2173.85,280.054 2170.05,280.054C2168.05,280.054 2166.45,280.454 2164.85,281.654C2155.25,287.654 2133.45,293.254 2118.85,293.254C2110.25,293.254 2104.65,290.654 2096.85,283.054L2094.65,284.454ZM2103.45,446.854C2144.85,430.854 2174.65,403.254 2198.05,359.054C2202.65,350.654 2204.05,348.654 2207.25,346.054C2210.25,343.654 2211.05,342.454 2211.05,339.854C2211.05,336.654 2208.05,332.454 2201.85,327.054C2196.25,322.254 2191.65,319.454 2188.85,319.454C2186.65,319.454 2185.05,319.854 2183.25,321.054C2178.65,324.254 2178.25,324.454 2166.25,326.454C2140.05,331.054 2104.65,336.054 2097.05,336.054C2087.65,336.054 2081.25,332.054 2076.05,323.054C2075.05,325.254 2074.85,326.254 2074.85,327.654C2074.85,338.454 2089.05,355.854 2097.45,355.854C2099.85,355.854 2102.25,355.254 2105.05,353.854C2111.45,350.654 2114.45,349.654 2128.25,346.054C2146.25,341.254 2155.85,339.454 2181.45,336.054C2175.65,355.054 2164.65,375.854 2149.65,396.654C2136.45,415.054 2122.45,429.254 2102.25,444.854L2103.45,446.854Z" style="fill:rgb(51,51,51);fill-rule:nonzero;"/>
                <path d="M2254.45,394.654C2265.85,391.054 2280.25,385.054 2292.05,378.854C2304.05,372.454 2318.25,363.054 2334.85,350.454C2337.65,354.254 2338.25,357.054 2338.25,367.254C2338.25,388.854 2336.45,410.654 2333.85,418.854C2332.85,421.854 2332.65,423.254 2332.65,425.254C2332.65,433.654 2343.65,445.854 2351.05,445.854C2356.65,445.854 2359.25,441.854 2359.25,433.654C2359.25,431.654 2359.25,428.854 2359.05,426.054C2357.85,388.054 2357.85,385.454 2357.65,376.254C2357.45,361.454 2357.25,359.454 2355.45,356.654C2353.65,353.654 2348.45,349.254 2341.65,344.854C2355.85,332.654 2355.85,332.654 2369.85,319.654C2382.05,308.054 2382.05,308.054 2382.85,307.454C2389.85,302.454 2390.85,301.254 2390.85,297.654C2390.85,293.054 2385.45,287.054 2376.25,281.654C2368.45,277.054 2362.05,274.854 2356.05,274.854C2353.45,274.854 2352.25,275.054 2349.65,275.654C2357.05,279.454 2361.65,284.654 2361.65,288.854C2361.65,295.454 2349.45,311.454 2328.05,333.054C2303.45,357.854 2277.85,378.254 2253.45,392.454L2254.45,394.654Z" style="fill:rgb(51,51,51);fill-rule:nonzero;"/>
                <path d="M2466.25,299.054C2481.85,308.654 2492.05,319.454 2501.65,336.854C2504.65,342.054 2506.65,343.654 2510.05,343.654C2516.25,343.654 2520.85,336.454 2520.85,327.054C2520.85,319.454 2517.65,313.854 2511.05,309.854C2501.65,303.854 2489.65,300.454 2467.25,296.854L2466.25,299.054ZM2616.85,307.254C2599.85,327.854 2574.45,350.254 2544.65,371.654C2520.85,388.654 2494.65,402.454 2486.25,402.454C2480.85,402.454 2474.25,396.854 2468.85,387.654C2468.05,390.254 2467.85,391.254 2467.85,393.054C2467.85,399.454 2471.05,407.054 2477.45,415.254C2484.45,424.254 2491.85,429.854 2497.05,429.854C2500.05,429.854 2502.65,428.254 2505.45,424.854C2507.45,422.254 2511.05,419.454 2516.25,416.054C2541.65,399.654 2556.45,388.054 2574.25,370.454C2594.45,350.454 2608.25,331.454 2619.25,308.454L2616.85,307.254Z" style="fill:rgb(51,51,51);fill-rule:nonzero;"/>
            </g>
            <g id="logo_mark" transform="matrix(0.469303,0,0,0.469303,1965.45,1406.14)">
                <g transform="matrix(0.763255,0,0,0.763255,-1605.17,1235.69)">
                    <path d="M654.807,1245.19C707.529,921.211 1020.86,672 1399,672C1777.14,672 2090.47,921.211 2143.19,1245.19C2045.83,970.803 1749.3,771 1399,771C1048.7,771 752.169,970.803 654.807,1245.19Z" style="fill:rgb(255,215,0);"/>
                </g>
                <g transform="matrix(0.763255,0,0,0.763255,-1593.56,762.473)">
                    <path d="M1106.85,1624.33L1106.85,1668.59C1106.85,1679.3 1108.65,1686.7 1112.24,1690.81C1115.83,1694.91 1123.6,1696.96 1135.56,1696.96L1135.56,1715.93L1014.74,1715.93L1014.74,1696.96L1018.33,1696.96C1029.95,1696.96 1037.5,1694.82 1040.97,1690.55C1044.45,1686.28 1046.18,1678.96 1046.18,1668.59L1046.18,1531.53C1046.18,1520.93 1044.39,1513.56 1040.8,1509.4C1037.21,1505.24 1029.72,1503.16 1018.33,1503.16L1014.74,1503.16L1014.74,1484.19L1138.3,1484.19L1138.3,1503.16L1134.54,1503.16C1123.03,1503.16 1115.54,1505.3 1112.07,1509.57C1108.59,1513.84 1106.85,1521.16 1106.85,1531.53L1106.85,1596.13L1169.57,1538.37C1180.51,1528.34 1185.98,1520.14 1185.98,1513.76C1185.98,1506.69 1179.09,1503.16 1165.3,1503.16L1165.3,1484.19L1267.84,1484.19L1267.84,1503.16C1258.5,1503.16 1248.7,1505.55 1238.44,1510.34C1228.19,1515.12 1213.66,1526.23 1194.87,1543.66L1173.85,1563.14L1237.59,1657.82C1248.3,1673.77 1257.16,1684.28 1264.16,1689.35C1271.17,1694.42 1280.54,1696.96 1292.28,1696.96L1292.28,1715.93L1159.15,1715.93L1159.15,1696.96C1176.46,1696.96 1185.12,1693.48 1185.12,1686.53C1185.12,1683.57 1181.59,1676.96 1174.53,1666.71L1130.44,1602.45L1106.85,1624.33Z" style="fill:rgb(0,166,255);fill-rule:nonzero;"/>
                    <path d="M1282.88,1599.38C1282.88,1578.53 1288.7,1558.19 1300.32,1538.37C1311.94,1518.54 1327.69,1503.87 1347.57,1494.36C1367.45,1484.85 1388.73,1480.09 1411.4,1480.09C1452.19,1480.09 1484.17,1491.85 1507.36,1515.38C1530.55,1538.91 1542.14,1567.76 1542.14,1601.94C1542.14,1634.41 1530.57,1662.32 1507.45,1685.68C1484.32,1709.04 1452.87,1720.71 1413.11,1720.71C1385.88,1720.71 1361.81,1714.96 1340.9,1703.45C1320,1691.95 1305.1,1676.48 1296.21,1657.05C1287.33,1637.63 1282.88,1618.4 1282.88,1599.38ZM1354.32,1597.5C1354.32,1633.16 1359.11,1658.88 1368.68,1674.66C1378.25,1690.44 1392.49,1698.33 1411.4,1698.33C1431.11,1698.33 1445.98,1691.12 1456.01,1676.71C1466.03,1662.3 1471.04,1637.03 1471.04,1600.91C1471.04,1567.87 1466.35,1543.21 1456.94,1526.91C1447.55,1510.62 1432.59,1502.48 1412.08,1502.48C1392.72,1502.48 1378.25,1510.05 1368.68,1525.21C1359.11,1540.36 1354.32,1564.45 1354.32,1597.5Z" style="fill:rgb(0,166,255);fill-rule:nonzero;"/>
                    <path d="M1651.18,1613.73L1651.18,1668.59C1651.18,1679.18 1653,1686.56 1656.65,1690.72C1660.29,1694.88 1667.76,1696.96 1679.03,1696.96L1683.14,1696.96L1683.14,1715.93L1558.21,1715.93L1558.21,1696.96L1562.82,1696.96C1574.44,1696.96 1581.99,1694.82 1585.47,1690.55C1588.94,1686.28 1590.68,1678.96 1590.68,1668.59L1590.68,1531.53C1590.68,1520.93 1588.86,1513.56 1585.21,1509.4C1581.57,1505.24 1574.1,1503.16 1562.82,1503.16L1558.21,1503.16L1558.21,1484.19L1651.18,1484.02L1672.03,1483.85C1692.65,1483.85 1707.72,1484.53 1717.23,1485.9C1726.74,1487.27 1736.12,1490.54 1745.34,1495.73C1754.57,1500.91 1761.84,1508 1767.13,1517C1772.43,1526 1775.08,1535.69 1775.08,1546.06C1775.08,1573.63 1759.47,1592.48 1728.25,1602.62C1736.57,1607.86 1749.5,1624.27 1767.05,1651.84C1780.72,1673.15 1790.46,1685.99 1796.27,1690.38C1802.08,1694.77 1808.46,1696.96 1815.41,1696.96L1815.41,1715.93L1742.95,1715.93C1736.34,1708.07 1724.1,1688.13 1706.21,1656.11C1697.21,1639.93 1690.88,1629.51 1687.24,1624.84C1683.59,1620.17 1679.86,1617.18 1676.04,1615.87C1672.23,1614.56 1663.94,1613.85 1651.18,1613.73ZM1651.18,1592.88C1670.43,1593.11 1683.42,1591.94 1690.14,1589.38C1696.87,1586.82 1702.16,1582.2 1706.04,1575.54C1709.91,1568.87 1711.85,1559.84 1711.85,1548.45C1711.85,1532.15 1708,1520.88 1700.31,1514.61C1692.62,1508.34 1679.38,1505.21 1660.58,1505.21C1658.18,1505.21 1655.05,1505.27 1651.18,1505.38L1651.18,1592.88Z" style="fill:rgb(0,166,255);fill-rule:nonzero;"/>
                </g>
                <g transform="matrix(0.763255,0,0,0.763255,-1653.45,981.528)">
                    <path d="M1227.51,1638.85L1226.48,1715.93L1015.25,1715.93L1015.25,1696.96L1018.67,1696.96C1030.29,1696.96 1037.84,1694.82 1041.31,1690.55C1044.79,1686.28 1046.53,1678.96 1046.53,1668.59L1046.53,1531.53C1046.53,1520.93 1044.7,1513.56 1041.06,1509.4C1037.41,1505.24 1029.95,1503.16 1018.67,1503.16L1015.25,1503.16L1015.25,1484.19L1139.49,1484.19L1139.49,1503.16L1134.88,1503.16C1123.26,1503.16 1115.71,1505.3 1112.24,1509.57C1108.76,1513.84 1107.02,1521.16 1107.02,1531.53L1107.02,1663.8C1107.02,1673.72 1107.59,1680.27 1108.73,1683.46C1109.87,1686.65 1112.86,1689.41 1117.7,1691.75C1122.55,1694.08 1131.01,1695.25 1143.08,1695.25C1163.36,1695.25 1178.52,1690.15 1188.54,1679.95C1198.57,1669.76 1205.4,1656.06 1209.05,1638.85L1227.51,1638.85Z" style="fill:rgb(0,166,255);fill-rule:nonzero;"/>
                    <path d="M1274.13,1503.16L1274.13,1484.19L1396.66,1484.19L1396.66,1503.16L1393.07,1503.16C1381.57,1503.16 1374.08,1505.3 1370.6,1509.57C1367.12,1513.84 1365.39,1521.16 1365.39,1531.53L1365.39,1668.59C1365.39,1679.18 1367.18,1686.56 1370.77,1690.72C1374.36,1694.88 1381.79,1696.96 1393.07,1696.96L1396.66,1696.96L1396.66,1715.93L1274.13,1715.93L1274.13,1696.96C1286.43,1696.96 1294.61,1695.08 1298.65,1691.32C1302.7,1687.56 1304.72,1679.98 1304.72,1668.59L1304.72,1531.53C1304.72,1520.48 1302.81,1512.99 1298.99,1509.06C1295.18,1505.12 1286.89,1503.16 1274.13,1503.16Z" style="fill:rgb(0,166,255);fill-rule:nonzero;"/>
                    <path d="M1505.15,1550.16L1505.15,1656.63C1505.15,1673.72 1508.25,1684.71 1514.46,1689.61C1520.67,1694.51 1528.62,1696.96 1538.3,1696.96L1538.3,1715.93L1451.32,1715.93L1451.32,1696.96C1458.72,1696.96 1465.16,1695.16 1470.63,1691.58C1476.1,1687.99 1479.57,1683.83 1481.05,1679.1C1482.53,1674.37 1483.27,1666.94 1483.27,1656.8L1483.27,1538.54C1483.27,1514.95 1472.22,1503.16 1450.12,1503.16L1450.12,1484.19L1528.39,1484.19L1655.37,1626.04L1655.37,1541.1C1655.37,1515.81 1644.72,1503.16 1623.41,1503.16L1623.41,1484.19L1706.64,1484.19L1706.64,1503.16C1700.83,1503.16 1695.39,1504.76 1690.32,1507.94C1685.25,1511.13 1681.8,1515.21 1679.98,1520.16C1678.15,1525.12 1677.24,1532.33 1677.24,1541.78L1677.24,1719.69L1655.37,1719.69L1505.15,1550.16Z" style="fill:rgb(0,166,255);fill-rule:nonzero;"/>
                    <path d="M1851.01,1605.19L1851.01,1662.44C1851.01,1673.38 1851.64,1680.52 1852.89,1683.88C1854.15,1687.25 1857.51,1690.04 1862.98,1692.26C1868.44,1694.48 1876.76,1695.59 1887.93,1695.59C1903.08,1695.59 1914.22,1693.71 1921.34,1689.95C1928.46,1686.19 1934.84,1679.58 1940.48,1670.13C1946.12,1660.67 1950.19,1650.59 1952.7,1639.88L1971.84,1639.88L1970.3,1715.93L1758.39,1715.93L1758.39,1696.96L1762.66,1696.96C1774.17,1696.96 1781.66,1694.82 1785.13,1690.55C1788.61,1686.28 1790.34,1678.96 1790.34,1668.59L1790.34,1531.19C1790.34,1520.59 1788.55,1513.21 1784.96,1509.06C1781.37,1504.9 1773.94,1502.82 1762.66,1502.82L1758.39,1502.82L1758.39,1484.19L1955.77,1484.19L1959.19,1544.17L1940.05,1544.17C1936.63,1533.69 1932.82,1525.35 1928.6,1519.14C1924.38,1512.93 1920.14,1508.94 1915.87,1507.18C1911.6,1505.41 1904.39,1504.53 1894.25,1504.53L1851.01,1504.53L1851.01,1584.51L1872.55,1584.51C1882.8,1584.51 1889.61,1582.57 1892.97,1578.7C1896.33,1574.82 1898.24,1567.19 1898.69,1555.8L1918.01,1555.8L1918.01,1634.41L1898.69,1634.41C1898.81,1632.93 1898.87,1631.85 1898.87,1631.16C1898.87,1624.56 1897.47,1618.57 1894.68,1613.22C1891.89,1607.86 1884.74,1605.19 1873.23,1605.19L1851.01,1605.19Z" style="fill:rgb(0,166,255);fill-rule:nonzero;"/>
                </g>
            </g>
        </g>
    </g>
</svg>
